<?xml version="1.0" ?><svg id="Export_Bold" style="enable-background:new 0 0 500 500;" version="1.1" viewBox="0 0 500 500" xml:space="preserve" xmlns="http://www.w3.org/2000/svg" xmlns:xlink="http://www.w3.org/1999/xlink"><path d="M285.4,250l95.3-95.3c9.8-9.8,9.8-25.6,0-35.4c-9.8-9.8-25.6-9.8-35.4,0L250,214.6l-95.3-95.3c-9.8-9.8-25.6-9.8-35.4,0  c-9.8,9.8-9.8,25.6,0,35.4l95.3,95.3l-95.3,95.3c-9.8,9.8-9.8,25.6,0,35.4c4.9,4.9,11.3,7.3,17.7,7.3s12.8-2.4,17.7-7.3l95.3-95.3  l95.3,95.3c4.9,4.9,11.3,7.3,17.7,7.3s12.8-2.4,17.7-7.3c9.8-9.8,9.8-25.6,0-35.4L285.4,250z"/></svg>