<?xml version="1.0" ?><svg viewBox="0 0 32 32" xmlns="http://www.w3.org/2000/svg"><title/><g id="Screenshoot"><path d="M24.35,8.88H7.65V23.13h16.7Zm-6.92,2a1.44,1.44,0,0,1-2.86,0Zm-4.86,0a3.43,3.43,0,0,0,6.86,0h2.92v3.93l-.63-.63a2.25,2.25,0,0,0-1.65-.65,2.22,2.22,0,0,0-1.6.76l-2.72,3.15-.52-.6a2.18,2.18,0,0,0-1.68-.78h0a2.21,2.21,0,0,0-1.68.78L9.65,19.42V10.88Zm3.71,10.25H10.82l2.57-3a.21.21,0,0,1,.16-.08.24.24,0,0,1,.17.08Zm2.63,0L17.06,19,20,15.6a.21.21,0,0,1,.16-.07.19.19,0,0,1,.16.06l2.05,2.05v3.49Z"/><polygon points="10.07 3 8.07 3 8.07 6.33 4.73 6.33 4.73 8.33 10.07 8.33 10.07 3"/><polygon points="21.93 23.67 21.93 29 23.93 29 23.93 25.67 27.27 25.67 27.27 23.67 21.93 23.67"/></g></svg>