<svg id="Capa_1" enable-background="new 0 0 512 512" height="512" viewBox="0 0 512 512" width="512" xmlns="http://www.w3.org/2000/svg"><g><path d="m467.539 351.051c-3.759-7.383-12.793-10.321-20.173-6.562-7.383 3.759-10.32 12.79-6.562 20.173l9.518 18.694h-66.364v-209.185h66.364l-9.518 18.694c-3.759 7.383-.821 16.414 6.562 20.173 7.381 3.758 16.414.821 20.173-6.562l20.619-40.5c2.08-4.08 2.228-9.241 0-13.611l-20.619-40.5c-3.759-7.384-12.793-10.32-20.173-6.562-7.383 3.759-10.32 12.79-6.562 20.173l9.518 18.694h-66.364v-116.463c0-15.277-12.429-27.707-27.707-27.707h-207.697c-7.709 0-14.722 3.207-19.586 8.112l-98.647 98.648c-5.378 5.339-8.15 12.544-8.15 19.625v357.908c-.001 15.277 12.429 27.707 27.706 27.707h306.374c15.277 0 27.707-12.43 27.707-27.707v-70.937h66.364l-9.518 18.694c-3.759 7.383-.821 16.414 6.562 20.173 7.381 3.758 16.414.821 20.173-6.562 21.915-43.046 22.812-42.997 22.155-48.971-.47-4.224-.751-3.598-22.155-45.639zm-339.246-299.838v54.911h-54.911zm225.665 92.958h-90.833c-8.284 0-15 6.716-15 15s6.716 15 15 15h90.833v209.186h-90.833c-8.284 0-15 6.716-15 15s6.716 15 15 15h90.833v68.643h-301.788v-345.876h78.416c15.277 0 27.707-12.43 27.707-27.708v-78.416h195.665z"/><path d="m290.475 320.544c2.602 4.452 7.419 7.452 12.948 7.452 8.284 0 15-6.716 15-15v-68.465c0-8.284-6.716-15-15-15-5.529 0-10.346 3-12.948 7.452-29.684-12.314-62.483 9.65-62.483 41.78 0 32.228 32.883 54.06 62.483 41.781zm-17.268-56.995c8.39 0 15.216 6.825 15.216 15.215s-6.826 15.215-15.216 15.215-15.215-6.825-15.215-15.215 6.826-15.215 15.215-15.215z"/><path d="m131.492 195.271-42.804 112.386c-2.948 7.741.937 16.408 8.679 19.356s16.408-.938 19.356-8.679l6.981-18.329h48.066l6.901 18.286c2.933 7.77 11.601 11.657 19.33 8.738 7.751-2.926 11.663-11.58 8.738-19.33l-42.415-112.392c-.052-.138-.106-.274-.162-.41-6.058-14.729-27.007-14.428-32.67.374zm28.957 74.735h-25.319l12.718-33.391z"/></g></svg>