<?xml version="1.0" ?><svg id="Layer_1" style="enable-background:new 0 0 1024 1024;" version="1.1" viewBox="0 0 1024 1024" xml:space="preserve" xmlns="http://www.w3.org/2000/svg" xmlns:xlink="http://www.w3.org/1999/xlink"><g id="XMLID_780_"><g id="XMLID_781_"><g id="XMLID_18_"><path d="M408.5,873.8c11.4,0,22.8,0,34.2,0c27.6,0,55.3,0,82.9,0c34.1,0,68.2,0,102.2,0c30.7,0,61.5,0,92.2,0     c17.6,0,35.2,0,52.8,0c40.2,0,78.5-14.3,107.4-42.5c19.3-18.9,33.8-43.8,40.1-70.2c3.2-13.4,4.3-27.2,4.3-41     c0-25.4,0-50.9,0-76.3c0-32.3,0-64.5,0-96.8c0-24.5,1.2-49.4-5.7-73.2c-15.2-52.4-60.7-95.8-115-104.8     c-14.4-2.4-28.2-2.7-42.6-2.7c-17.1,0-34.2,0-51.2,0c-25.9,0-51.8,0-77.6,0c-31.8,0-63.5,0-95.3,0c-34.4,0-68.7,0-103.1,0     c-33.8,0-67.6,0-101.4,0c-30,0-60.1,0-90.1,0c-23.1,0-46.2,0-69.2,0c-13,0-25.9,0-38.9,0c-1.7,0-3.4,0-5.1,0     c-15.7,0-30.7,13.8-30,30c0.7,16.3,13.2,30,30,30c22,0,43.9,0,65.9,0c52.6,0,105.1,0,157.7,0c62.8,0,125.7,0,188.5,0     c53.8,0,107.6,0,161.4,0c24.5,0,48.9-0.1,73.4,0c5.2,0,10.4,0.3,15.6,1c-2.7-0.4-5.3-0.7-8-1.1c10.3,1.4,20.3,4.1,29.9,8.1     c-2.4-1-4.8-2-7.2-3c6.9,2.9,13.6,6.5,19.8,10.6c1.5,1,2.9,2,4.3,3c3.3,2.3-2.8-2.3-2.9-2.3c0.7,0.1,2,1.6,2.6,2.1     c2.9,2.4,5.6,4.9,8.3,7.5c2.5,2.5,4.9,5.1,7.1,7.8c0.7,0.8,1.4,1.7,2.1,2.6c2.2,2.6-4.2-5.8-2.3-2.9c1,1.5,2.1,2.9,3,4.3     c4.3,6.4,8,13.3,11,20.4c-1-2.4-2-4.8-3-7.2c4,9.6,6.7,19.6,8.1,29.9c-0.4-2.7-0.7-5.3-1.1-8c1.3,10.7,1,21.6,1,32.3     c0,17.5,0,34.9,0,52.4c0,39.9,0,79.8,0,119.7c0,12.5,0.6,25.1-1,37.5c0.4-2.7,0.7-5.3,1.1-8c-1.4,10.3-4.1,20.3-8.1,29.9     c1-2.4,2-4.8,3-7.2c-2.9,6.9-6.5,13.6-10.6,19.8c-1,1.5-2,2.9-3,4.3c-2.3,3.3,2.3-2.8,2.3-2.9c-0.1,0.7-1.6,2-2.1,2.6     c-2.4,2.9-4.9,5.6-7.5,8.3c-2.5,2.5-5.1,4.9-7.8,7.1c-0.8,0.7-1.7,1.4-2.6,2.1c-2.6,2.2,5.8-4.2,2.9-2.3c-1.5,1-2.9,2.1-4.3,3     c-6.4,4.3-13.3,8-20.4,11c2.4-1,4.8-2,7.2-3c-9.6,4-19.6,6.7-29.9,8.1c2.7-0.4,5.3-0.7,8-1.1c-15.3,1.9-31.1,1-46.4,1     c-28.9,0-57.9,0-86.8,0c-36,0-72.1,0-108.1,0c-31.6,0-63.1,0-94.7,0c-15.5,0-31.1-0.3-46.6,0c-0.2,0-0.4,0-0.6,0     c-15.7,0-30.7,13.8-30,30C379.3,860,391.7,873.8,408.5,873.8L408.5,873.8z" id="XMLID_22_"/></g></g><g id="XMLID_782_"><g id="XMLID_12_"><path d="M324.3,159c-24.3,24.3-48.7,48.7-73,73c-38.8,38.8-77.6,77.6-116.4,116.4c-8.9,8.9-17.9,17.9-26.8,26.8     c-11.5,11.5-11.5,30.9,0,42.4c24.3,24.4,48.7,48.7,73,73.1c38.8,38.9,77.6,77.7,116.4,116.6c8.9,8.9,17.9,17.9,26.8,26.8     c11.1,11.1,31.5,11.9,42.4,0c11-12,11.8-30.6,0-42.4c-24.3-24.4-48.7-48.7-73-73.1c-38.8-38.9-77.6-77.7-116.4-116.6     c-8.9-8.9-17.9-17.9-26.8-26.8c0,14.1,0,28.3,0,42.4c24.3-24.3,48.7-48.7,73-73c38.8-38.8,77.6-77.6,116.4-116.4     c8.9-8.9,17.9-17.9,26.8-26.8c11.1-11.1,11.9-31.5,0-42.4C354.8,148,336.2,147.2,324.3,159L324.3,159z" id="XMLID_16_"/></g></g></g></svg>