<?xml version="1.0" ?><!DOCTYPE svg  PUBLIC '-//W3C//DTD SVG 1.1//EN'  'http://www.w3.org/Graphics/SVG/1.1/DTD/svg11.dtd'><svg height="64px" id="Image" style="enable-background:new 0 0 64 64;" version="1.1" viewBox="0 0 64 64" width="64px" xml:space="preserve" xmlns="http://www.w3.org/2000/svg" xmlns:xlink="http://www.w3.org/1999/xlink"><g><polygon points="   32,6 59,33 52,33 52,58 12,58 12,33 5,33  " style="fill:none;stroke:#424242;stroke-width:2;stroke-linecap:round;stroke-linejoin:round;stroke-miterlimit:10;"/><path d="   M27,29c0-2.76,2.238-5,5-5s5,2.24,5,5v4c0,2.762-2.238,5-5,5s-5-2.238-5-5V29z" style="fill:none;stroke:#424242;stroke-width:2;stroke-linecap:round;stroke-linejoin:round;stroke-miterlimit:10;"/><path d="   M21.041,50c-0.268-3.082,0.767-6.137,2.85-8.42C25.975,39.299,28.916,38,32,38s6.025,1.299,8.109,3.58   c2.083,2.283,3.117,5.338,2.85,8.42H21.041z" style="fill:none;stroke:#424242;stroke-width:2;stroke-linecap:round;stroke-linejoin:round;stroke-miterlimit:10;"/></g></svg>