<svg id="Capa_1" enable-background="new 0 0 512.107 512.107" height="512" viewBox="0 0 512.107 512.107" width="512" xmlns="http://www.w3.org/2000/svg"><g><g id="Page-1_7_"><g id="_x30_08---Send" transform="translate(-1)"><path id="Shape_33_" d="m502.268.318-494.934 138.581c-3.266.914-5.681 3.676-6.151 7.035s1.094 6.677 3.984 8.453l168.004 103.39 7.185 67.413c.428 3.998 3.588 7.154 7.586 7.578l67.413 7.185 103.365 167.987c1.553 2.525 4.306 4.063 7.27 4.062.394.002.788-.027 1.178-.085 3.359-.467 6.123-2.879 7.04-6.144l138.581-494.934c.833-2.97-.001-6.158-2.182-8.34-2.181-2.181-5.369-3.015-8.339-2.181zm-471.544 149.76 432.691-121.174-282.692 213.445zm159.488 106.521 270.703-204.407-204.407 270.703-59.913-6.383zm172.817 225.784-92.271-149.999 213.428-282.693z"/><path id="Shape_32_" d="m148.672 352.369-17.067 17.067c-2.218 2.142-3.108 5.315-2.327 8.299s3.111 5.314 6.094 6.094c2.983.781 6.156-.109 8.299-2.327l17.067-17.067c3.234-3.348 3.188-8.671-.104-11.962-3.291-3.292-8.614-3.338-11.962-.104z"/><path id="Shape_31_" d="m88.939 424.168c3.332 3.331 8.734 3.331 12.066 0l17.067-17.067c3.234-3.348 3.188-8.671-.104-11.962-3.292-3.292-8.614-3.338-11.962-.104l-17.067 17.067c-3.332 3.332-3.332 8.734 0 12.066z"/><path id="Shape_30_" d="m46.272 466.835c3.332 3.331 8.734 3.331 12.066 0l17.067-17.067c3.234-3.348 3.188-8.671-.104-11.962-3.292-3.292-8.614-3.338-11.962-.104l-17.067 17.067c-3.331 3.332-3.331 8.734 0 12.066z"/><path id="Shape_29_" d="m20.672 480.369-17.067 17.066c-2.218 2.143-3.108 5.315-2.327 8.299.781 2.983 3.111 5.314 6.094 6.094s6.156-.109 8.299-2.327l17.067-17.067c3.234-3.348 3.188-8.671-.104-11.962-3.291-3.291-8.614-3.337-11.962-.103z"/><path id="Shape_28_" d="m211.938 407.102 17.067-17.067c3.234-3.348 3.188-8.671-.104-11.962-3.292-3.292-8.614-3.338-11.962-.104l-17.067 17.067c-2.218 2.143-3.108 5.315-2.327 8.299.781 2.983 3.111 5.314 6.094 6.094 2.984.781 6.157-.109 8.299-2.327z"/><path id="Shape_27_" d="m157.205 449.768c3.332 3.331 8.734 3.331 12.066 0l17.067-17.067c3.234-3.348 3.188-8.671-.104-11.962-3.292-3.292-8.614-3.338-11.962-.104l-17.067 17.067c-3.331 3.332-3.331 8.734 0 12.066z"/><path id="Shape_26_" d="m123.072 284.102-17.067 17.067c-2.218 2.143-3.108 5.315-2.327 8.299.781 2.983 3.111 5.314 6.094 6.094 2.984.781 6.156-.109 8.299-2.327l17.067-17.067c3.234-3.348 3.188-8.671-.104-11.962-3.291-3.292-8.614-3.338-11.962-.104z"/><path id="Shape_25_" d="m80.405 326.769-17.067 17.067c-2.218 2.143-3.108 5.315-2.327 8.299.781 2.983 3.111 5.314 6.094 6.094s6.156-.109 8.299-2.327l17.067-17.067c3.234-3.348 3.188-8.671-.104-11.962-3.291-3.292-8.613-3.338-11.962-.104z"/></g></g></g></svg>