<?xml version="1.0" encoding="UTF-8"?>
<svg xmlns="http://www.w3.org/2000/svg" viewBox="0 0 32 32" width="512" height="512"><g id="_38-handwatch" data-name="38-handwatch"><path d="M30,12H28.36a13.94,13.94,0,0,0-.79-1.91l1.16-1.16a1,1,0,0,0,0-1.42L24.49,3.27a1,1,0,0,0-1.42,0L21.91,4.43A13.94,13.94,0,0,0,20,3.64V2a1,1,0,0,0-1-1H13a1,1,0,0,0-1,1V3.64a13.94,13.94,0,0,0-1.91.79L8.93,3.27a1,1,0,0,0-1.42,0L3.27,7.51a1,1,0,0,0,0,1.42l1.16,1.16A13.94,13.94,0,0,0,3.64,12H2a1,1,0,0,0-1,1v6a1,1,0,0,0,1,1H3.64a13.94,13.94,0,0,0,.79,1.91L3.27,23.07a1,1,0,0,0,0,1.42l4.24,4.24a1,1,0,0,0,1.42,0l1.16-1.16a13.94,13.94,0,0,0,1.91.79V30a1,1,0,0,0,1,1h6a1,1,0,0,0,1-1V28.36a13.94,13.94,0,0,0,1.91-.79l1.16,1.16a1,1,0,0,0,1.42,0l4.24-4.24a1,1,0,0,0,0-1.42l-1.16-1.16A13.94,13.94,0,0,0,28.36,20H30a1,1,0,0,0,1-1V13A1,1,0,0,0,30,12Zm-1,6H27.61a1,1,0,0,0-1,.75,11,11,0,0,1-1.17,2.83,1,1,0,0,0,.15,1.21l1,1-2.83,2.83-1-1a1,1,0,0,0-1.21-.15,11,11,0,0,1-2.83,1.17,1,1,0,0,0-.75,1V29H14V27.61a1,1,0,0,0-.75-1,11,11,0,0,1-2.83-1.17,1,1,0,0,0-1.21.15l-1,1L5.39,23.78l1-1a1,1,0,0,0,.15-1.21,11,11,0,0,1-1.17-2.83,1,1,0,0,0-1-.75H3V14H4.39a1,1,0,0,0,1-.75,11,11,0,0,1,1.17-2.83,1,1,0,0,0-.15-1.21l-1-1L8.22,5.39l1,1a1,1,0,0,0,1.21.15,11,11,0,0,1,2.83-1.17,1,1,0,0,0,.75-1V3h4V4.39a1,1,0,0,0,.75,1,11,11,0,0,1,2.83,1.17,1,1,0,0,0,1.21-.15l1-1,2.83,2.83-1,1a1,1,0,0,0-.15,1.21,11,11,0,0,1,1.17,2.83,1,1,0,0,0,1,.75H29ZM16,9a7,7,0,1,0,7,7A7,7,0,0,0,16,9Zm0,12a5,5,0,1,1,5-5A5,5,0,0,1,16,21Z"/></g></svg>
