<svg height="444pt" viewBox="0 -29 444 444" width="444pt" xmlns="http://www.w3.org/2000/svg" class=""><path d="m444 105.148438-105.679688 106.210937v-64.257813c-16.460937-2.652343-82.308593-7.429687-131.160156 73.820313l-6.378906 10.617187-2.121094-12.21875c0-.53125-13.808594-76.46875 50.980469-130.101562 1.070313-1.070312 28.628906-26.46875 88.679687-26.019531v-63.199219zm0 0" fill="#00efd1" data-original="#00EFD1" class="     active-path" style="fill: rgb(0, 172, 234);"></path><path d="m377.351562 386.71875h-327.351562c-27.601562-.03125-49.96875-22.398438-50-50v-238.246094c.03125-27.601562 22.398438-49.96875 50-50h69.160156c5.523438 0 10 4.476563 10 10 0 5.523438-4.476562 10-10 10h-69.160156c-16.5625.019532-29.980469 13.441406-30 30v238.246094c.019531 16.558594 13.4375 29.980469 30 30h327.351562c16.5625-.019531 29.984376-13.441406 30-30v-42.265625c0-5.523437 4.480469-10 10-10 5.523438 0 10 4.476563 10 10v42.265625c-.03125 27.601562-22.398437 49.96875-50 50zm0 0" fill="#00acea" data-original="#00ACEA" class="  " style="fill: rgb(0, 172, 234);"></path></svg>