<svg id="Layer_1" enable-background="new 0 0 512 512" height="512" viewBox="0 0 512 512" width="512" xmlns="http://www.w3.org/2000/svg" class=""><path d="m404.977 94h-256.016c-6.627 0-12 5.373-12 12v31.983h-29.938c-6.627 0-12 5.373-12 12v256.017c0 6.627 5.373 12 12 12h256.016c6.627 0 12-5.373 12-12v-31.983h29.938c6.627 0 12-5.373 12-12v-256.017c0-6.627-5.373-12-12-12zm-53.938 300h-232.016v-232.017h29.938 202.078v200.033zm41.938-43.983h-17.938v-200.034c0-6.627-5.373-12-12-12h-202.078v-19.983h232.016zm44.043-275.037c-48.353-48.351-112.64-74.98-181.02-74.98s-132.667 26.629-181.02 74.98c-48.351 48.353-74.98 112.64-74.98 181.02s26.629 132.667 74.98 181.02c48.353 48.351 112.64 74.98 181.02 74.98s132.667-26.629 181.02-74.98c48.351-48.353 74.98-112.64 74.98-181.02s-26.629-132.667-74.98-181.02zm-181.02 413.02c-127.925 0-232-104.075-232-232s104.075-232 232-232 232 104.075 232 232-104.075 232-232 232z" data-original="#000000" class="active-path     " style="fill: rgb(31, 139, 240);"></path></svg>