<?xml version="1.0" encoding="iso-8859-1"?>
<!-- Generator: Adobe Illustrator 19.0.0, SVG Export Plug-In . SVG Version: 6.00 Build 0)  -->
<svg version="1.1" id="Capa_1" xmlns="http://www.w3.org/2000/svg" xmlns:xlink="http://www.w3.org/1999/xlink" x="0px" y="0px"
	 viewBox="0 0 512 512" style="enable-background:new 0 0 512 512;" xml:space="preserve">
<g>
	<g>
		<path style="fill:#231F20;" d="M508.739,114.566L397.434,3.261C395.353,1.169,392.526,0,389.565,0H211.478
			c-18.41,0-33.391,14.982-33.391,33.391v33.391H33.391C14.982,66.783,0,81.764,0,100.174v378.435C0,497.018,14.97,512,33.38,512
			h267.142c18.399,0,33.38-14.97,33.391-33.369c0-0.011,0-0.011,0-0.022v-33.391h144.696c18.41,0,33.391-14.982,33.391-33.391
			V122.435C512,119.485,510.831,116.647,508.739,114.566z M378.435,22.261h6.522l104.782,104.782v6.522H378.435V22.261z
			 M311.652,200.348H200.348V89.043h6.522l104.782,104.782V200.348z M311.652,478.609c0,6.144-4.986,11.13-11.13,11.13H33.38
			c-6.133,0-11.119-4.986-11.119-11.13V100.174c0-6.133,4.998-11.13,11.13-11.13h144.696v44.522H77.913
			c-6.144,0-11.13,4.986-11.13,11.13v289.391c0,6.155,4.986,11.13,11.13,11.13H256c6.144,0,11.13-4.975,11.13-11.13
			s-4.986-11.13-11.13-11.13H89.043v-267.13h89.044v55.652c0,6.144,4.986,11.13,11.13,11.13h122.435V478.609z M478.609,422.957
			H333.913v-44.522h100.174c6.155,0,11.13-4.975,11.13-11.13c0-6.155-4.975-11.13-11.13-11.13H333.913V189.217
			c0-2.95-1.169-5.788-3.261-7.869L219.347,70.044c-2.081-2.093-4.92-3.261-7.869-3.261h-11.13V33.391
			c0-6.133,4.998-11.13,11.13-11.13h144.696v122.435c0,6.144,4.975,11.13,11.13,11.13h122.435v256
			C489.739,417.97,484.753,422.957,478.609,422.957z"/>
	</g>
</g>
<g>
</g>
<g>
</g>
<g>
</g>
<g>
</g>
<g>
</g>
<g>
</g>
<g>
</g>
<g>
</g>
<g>
</g>
<g>
</g>
<g>
</g>
<g>
</g>
<g>
</g>
<g>
</g>
<g>
</g>
</svg>
