<?xml version="1.0" encoding="iso-8859-1"?>
<!-- Generator: Adobe Illustrator 19.0.0, SVG Export Plug-In . SVG Version: 6.00 Build 0)  -->
<svg version="1.1" id="Capa_1" xmlns="http://www.w3.org/2000/svg" xmlns:xlink="http://www.w3.org/1999/xlink" x="0px" y="0px"
	 viewBox="0 0 368 368" style="enable-background:new 0 0 368 368;" xml:space="preserve">
<path style="fill:#EFF7FF;" d="M232,264V152v-16l-80-80h-16V24c0-8.8,7.2-16,16-16h112v96h96v192c0,8.8-7.2,16-16,16H232V264z"/>
<path style="fill:#CCE4FF;" d="M136,104v48h96v112v48v32c0,8.8-7.2,16-16,16H24c-8.8,0-16-7.2-16-16V72c0-8.8,7.2-16,16-16h112V104z
	"/>
<path style="fill:#007AFF;" d="M285.656,2.344C284.16,0.84,282.12,0,280,0H152c-13.232,0-24,10.768-24,24v24H24
	C10.768,48,0,58.768,0,72v272c0,13.232,10.768,24,24,24h192c13.232,0,24-10.768,24-24v-24h104c13.232,0,24-10.768,24-24V104V88
	c0-2.12-0.84-4.16-2.344-5.656L285.656,2.344z M352,91.312V96h-80V16h4.688L352,91.312z M224,144h-80V64h4.688L224,139.312V144z
	 M216,352H24c-4.408,0-8-3.592-8-8V72c0-4.408,3.592-8,8-8h104v32H56c-4.416,0-8,3.584-8,8v208c0,4.416,3.584,8,8,8h128
	c4.416,0,8-3.584,8-8s-3.584-8-8-8H64V112h64v40c0,4.416,3.584,8,8,8h88v104v48v32C224,348.408,220.408,352,216,352z M344,304H240
	v-32h72c4.416,0,8-3.584,8-8s-3.584-8-8-8h-72V152v-16c0-2.12-0.84-4.16-2.344-5.656l-80-80C156.16,48.84,154.12,48,152,48h-8V24
	c0-4.408,3.592-8,8-8h104v88c0,4.416,3.584,8,8,8h88v184C352,300.408,348.408,304,344,304z"/>
<g>
</g>
<g>
</g>
<g>
</g>
<g>
</g>
<g>
</g>
<g>
</g>
<g>
</g>
<g>
</g>
<g>
</g>
<g>
</g>
<g>
</g>
<g>
</g>
<g>
</g>
<g>
</g>
<g>
</g>
</svg>
