<svg height="512pt" viewBox="-39 0 511 512" width="512pt" xmlns="http://www.w3.org/2000/svg" class=""><path d="m351.675781 0h-266.871093c-1.988282 0-3.898438.789062-5.304688 2.195312l-76.804688 76.800782c-1.40625 1.40625-2.195312 3.316406-2.195312 5.304687v420.199219c0 4.140625 3.359375 7.5 7.5 7.5h343.675781c4.140625 0 7.5-3.359375 7.5-7.5v-497c0-4.140625-3.359375-7.5-7.5-7.5zm0 0" fill="#fff4f1" data-original="#FFF4F1" class="                                              " style="fill: rgb(255, 244, 241);"></path><path d="m351.675781 0h-23c4.140625 0 7.5 3.359375 7.5 7.5v497c0 4.140625-3.359375 7.5-7.5 7.5h23c4.140625 0 7.5-3.359375 7.5-7.5v-497c0-4.140625-3.359375-7.5-7.5-7.5zm0 0" fill="#ecedef" data-original="#ECEDEF" class="   active-path" style="fill: rgb(236, 237, 239);"></path><path d="m83.949219.0546875c-1.675781.1914065-3.246094.9375005-4.449219 2.1406245l-76.804688 76.800782c-1.253906 1.257812-2.011718 2.910156-2.164062 4.667968h83.417969zm0 0" fill="#4890e3" data-original="#4890E3" class="      " style="fill: rgb(72, 144, 227);"></path><g fill="#d0cfd1"><path d="m131.777344 145.660156h-72.367188c-4.140625 0-7.5-3.355468-7.5-7.5 0-4.140625 3.359375-7.5 7.5-7.5h72.367188c4.140625 0 7.5 3.359375 7.5 7.5 0 4.144532-3.359375 7.5-7.5 7.5zm0 0" data-original="#D0CFD1" class=""></path><path d="m281.339844 211.945312h-223.003906c-4.140626 0-7.5-3.359374-7.5-7.5 0-4.140624 3.359374-7.5 7.5-7.5h223.003906c4.140625 0 7.5 3.359376 7.5 7.5 0 4.140626-3.355469 7.5-7.5 7.5zm0 0" data-original="#D0CFD1" class=""></path><path d="m281.339844 242.566406h-223.003906c-4.140626 0-7.5-3.355468-7.5-7.5 0-4.140625 3.359374-7.5 7.5-7.5h223.003906c4.140625 0 7.5 3.359375 7.5 7.5 0 4.144532-3.355469 7.5-7.5 7.5zm0 0" data-original="#D0CFD1" class=""></path></g><path d="m430.136719 411.566406-59.894531-54.839844c-1.792969-1.636718-4.234376-2.265624-6.554688-1.796874-1.496094-.308594-3.078125-.175782-4.53125.464843-2.722656 1.199219-4.480469 3.890625-4.480469 6.863281v21.546876h-203.644531c-4.144531 0-7.5 3.359374-7.5 7.5v51.582031c0 4.144531 3.355469 7.5 7.5 7.5h203.644531v21.546875c0 2.972656 1.757813 5.667968 4.480469 6.863281.96875.429687 2 .636719 3.019531.636719.503907 0 1-.054688 1.492188-.152344.5.101562 1.003906.152344 1.507812.152344 1.839844 0 3.65625-.675782 5.066407-1.96875l59.894531-54.835938c1.550781-1.421875 2.433593-3.429687 2.433593-5.53125 0-2.105468-.882812-4.109375-2.433593-5.53125zm0 0" fill="#f45a3c" data-original="#F45A3C" class="  " style="fill: rgb(244, 90, 60);"></path><path d="m281.960938 267.339844h-224.242188c-4.144531 0-7.5 3.355468-7.5 7.5v53.929687c0 4.140625 3.355469 7.5 7.5 7.5h224.242188c4.140624 0 7.5-3.359375 7.5-7.5v-53.929687c0-4.144532-3.359376-7.5-7.5-7.5zm0 0" fill="#91bcee" data-original="#91BCEE" class="         " style="fill: rgb(145, 188, 238);"></path><path d="m430.136719 411.566406-59.894531-54.839844c-1.792969-1.636718-4.234376-2.265624-6.554688-1.796874-1.496094-.308594-3.078125-.175782-4.53125.464843-2.722656 1.199219-4.480469 3.890625-4.480469 6.863281v1.277344l52.460938 48.03125c1.550781 1.417969 2.433593 3.425782 2.433593 5.53125 0 2.101563-.882812 4.109375-2.433593 5.53125l-52.460938 48.03125v1.273438c0 2.976562 1.757813 5.667968 4.480469 6.867187.96875.425781 2 .632813 3.019531.632813.503907 0 1-.054688 1.492188-.152344.5.101562 1.003906.152344 1.507812.152344 1.839844 0 3.65625-.675782 5.066407-1.964844l59.894531-54.839844c1.550781-1.421875 2.433593-3.429687 2.433593-5.53125 0-2.105468-.882812-4.109375-2.433593-5.53125zm0 0" fill="#eb4c36" data-original="#EB4C36" class=""></path><path d="m281.960938 267.339844h-23c4.140624 0 7.5 3.355468 7.5 7.5v53.929687c0 4.140625-3.359376 7.5-7.5 7.5h23c4.140624 0 7.5-3.359375 7.5-7.5v-53.929687c0-4.144532-3.359376-7.5-7.5-7.5zm0 0" fill="#4890e3" data-original="#4890E3" class="    " style="fill: rgb(72, 144, 227);"></path></svg>