<svg id="Capa_1" enable-background="new 0 0 512 512" height="512" viewBox="0 0 512 512" width="512" xmlns="http://www.w3.org/2000/svg"><g><g id="Page-1_43_"><g id="_x30_44---Screenshot-Video"><g clip-rule="evenodd" fill-rule="evenodd"><path id="Path_270_" d="m176.552 26.483h17.655c4.875 0 8.828-3.952 8.828-8.828s-3.952-8.828-8.828-8.828h-17.655c-4.875 0-8.828 3.952-8.828 8.828s3.952 8.828 8.828 8.828z"/><path id="Path_269_" d="m123.586 26.483h17.655c4.875 0 8.828-3.952 8.828-8.828s-3.952-8.828-8.828-8.828h-17.655c-4.875 0-8.828 3.952-8.828 8.828s3.953 8.828 8.828 8.828z"/><path id="Path_268_" d="m88.276 8.828h-17.655c-4.875 0-8.828 3.952-8.828 8.828s3.952 8.828 8.828 8.828h17.655c4.875 0 8.828-3.952 8.828-8.828s-3.953-8.828-8.828-8.828z"/><path id="Path_267_" d="m35.31 8.828h-8.828c.001-4.876-3.951-8.828-8.827-8.828s-8.827 3.952-8.827 8.828c-4.876 0-8.828 3.952-8.828 8.827s3.952 8.828 8.828 8.828v8.828c0 4.875 3.952 8.828 8.828 8.828s8.828-3.952 8.828-8.828v-8.828h8.828c4.875 0 8.828-3.952 8.828-8.828s-3.954-8.827-8.83-8.827z"/><path id="Path_266_" d="m229.517 26.483h17.655c4.875 0 8.828-3.952 8.828-8.828s-3.952-8.828-8.828-8.828h-17.655c-4.875 0-8.828 3.952-8.828 8.828s3.953 8.828 8.828 8.828z"/><path id="Path_265_" d="m282.483 26.483h17.655c4.875 0 8.828-3.952 8.828-8.828s-3.952-8.828-8.828-8.828h-17.655c-4.875 0-8.828 3.952-8.828 8.828s3.952 8.828 8.828 8.828z"/><path id="Path_264_" d="m335.448 26.483h17.655c4.875 0 8.828-3.952 8.828-8.828s-3.952-8.828-8.828-8.828h-17.655c-4.875 0-8.828 3.952-8.828 8.828s3.953 8.828 8.828 8.828z"/><path id="Path_263_" d="m388.414 26.483h17.655c4.875 0 8.828-3.952 8.828-8.828s-3.952-8.828-8.828-8.828h-17.655c-4.875 0-8.828 3.952-8.828 8.828s3.952 8.828 8.828 8.828z"/><path id="Path_262_" d="m441.379 26.483h8.828v8.828c0 4.875 3.952 8.828 8.828 8.828s8.828-3.952 8.828-8.828v-8.828c4.875 0 8.828-3.952 8.828-8.828s-3.952-8.828-8.828-8.828c0-4.875-3.952-8.828-8.828-8.828s-8.828 3.952-8.828 8.828h-8.828c-4.875 0-8.828 3.952-8.828 8.828s3.953 8.828 8.828 8.828z"/><path id="Path_261_" d="m8.828 194.207c0 4.875 3.952 8.828 8.828 8.828s8.828-3.952 8.828-8.828v-17.655c0-4.875-3.952-8.828-8.828-8.828s-8.828 3.952-8.828 8.828z"/><path id="Path_260_" d="m17.655 97.103c4.875 0 8.828-3.952 8.828-8.828v-17.654c0-4.875-3.952-8.828-8.828-8.828s-8.828 3.952-8.828 8.828v17.655c.001 4.875 3.953 8.827 8.828 8.827z"/><path id="Path_259_" d="m185.379 450.207h-8.828c-4.875 0-8.828 3.952-8.828 8.828s3.952 8.828 8.828 8.828h8.828c4.875 0 8.828-3.952 8.828-8.828s-3.952-8.828-8.828-8.828z"/><path id="Path_258_" d="m141.241 450.207h-17.655c-4.875 0-8.828 3.952-8.828 8.828s3.952 8.828 8.828 8.828h17.655c4.875 0 8.828-3.952 8.828-8.828s-3.952-8.828-8.828-8.828z"/><path id="Path_257_" d="m88.276 450.207h-17.655c-4.875 0-8.828 3.952-8.828 8.828s3.952 8.828 8.828 8.828h17.655c4.875 0 8.828-3.952 8.828-8.828s-3.953-8.828-8.828-8.828z"/><path id="Path_256_" d="m35.31 450.207h-8.828v-8.828c0-4.875-3.952-8.828-8.828-8.828s-8.828 3.952-8.828 8.828v8.828c-4.875 0-8.828 3.952-8.828 8.828s3.952 8.828 8.828 8.828c0 4.875 3.952 8.828 8.828 8.828s8.828-3.952 8.828-8.828h8.828c4.875 0 8.828-3.952 8.828-8.828s-3.952-8.828-8.828-8.828z"/><path id="Path_255_" d="m8.828 247.172c0 4.875 3.952 8.828 8.828 8.828s8.828-3.952 8.828-8.828v-17.655c0-4.875-3.952-8.828-8.828-8.828s-8.828 3.952-8.828 8.828z"/><path id="Path_254_" d="m8.828 300.138c0 4.875 3.952 8.828 8.828 8.828s8.828-3.952 8.828-8.828v-17.655c0-4.875-3.952-8.828-8.828-8.828s-8.828 3.952-8.828 8.828z"/><path id="Path_253_" d="m8.828 353.103c0 4.875 3.952 8.828 8.828 8.828s8.828-3.952 8.828-8.828v-17.655c0-4.875-3.952-8.828-8.828-8.828s-8.828 3.952-8.828 8.828z"/><path id="Path_252_" d="m8.828 406.069c0 4.875 3.952 8.828 8.828 8.828s8.828-3.952 8.828-8.828v-17.655c0-4.875-3.952-8.828-8.828-8.828s-8.828 3.952-8.828 8.828z"/><path id="Path_251_" d="m467.862 176.552c0-4.875-3.952-8.828-8.828-8.828s-8.828 3.952-8.828 8.828v17.655c0 4.875 3.952 8.828 8.828 8.828s8.828-3.952 8.828-8.828z"/><path id="Path_250_" d="m467.862 70.621c0-4.875-3.952-8.828-8.828-8.828s-8.828 3.952-8.828 8.828v17.655c0 4.875 3.952 8.828 8.828 8.828s8.828-3.952 8.828-8.828z"/><path id="Path_249_" d="m8.828 141.241c0 4.875 3.952 8.828 8.828 8.828s8.828-3.952 8.828-8.828v-17.655c0-4.875-3.952-8.828-8.828-8.828s-8.828 3.952-8.828 8.828z"/><path id="Path_248_" d="m467.862 123.586c0-4.875-3.952-8.828-8.828-8.828s-8.828 3.952-8.828 8.828v17.655c0 4.875 3.952 8.828 8.828 8.828s8.828-3.952 8.828-8.828z"/><path id="Path_247_" d="m459.034 220.69c-4.875 0-8.828 3.952-8.828 8.828v17.655c0 4.875 3.952 8.828 8.828 8.828s8.828-3.952 8.828-8.828v-17.655c0-4.876-3.952-8.828-8.828-8.828z"/></g><path id="Shape_118_" d="m370.759 335.448c-39.003 0-70.621 31.618-70.621 70.621s31.618 70.621 70.621 70.621 70.621-31.618 70.621-70.621c-.044-38.985-31.637-70.577-70.621-70.621zm0 35.311c-19.501 0-35.31 15.809-35.31 35.31 0 4.875-3.952 8.828-8.828 8.828s-8.828-3.952-8.828-8.828c.029-29.24 23.726-52.936 52.966-52.966 4.875 0 8.828 3.952 8.828 8.828s-3.953 8.828-8.828 8.828z"/><path id="Shape_117_" d="m295.998 300.138 9.649-33.757c3.284-11.346 13.656-19.169 25.468-19.209h21.619c.23-2.913.371-5.853.371-8.828-.004-59.927-46.118-109.761-105.865-114.406s-113.008 37.465-122.273 96.672 28.587 115.573 86.896 129.403v-5.738c.029-24.365 19.773-44.109 44.138-44.138h39.997zm-77.612 0c-4.088.001-8.113-1.012-11.714-2.948-7.668-3.952-12.48-11.862-12.465-20.489v-76.712c-.012-8.623 4.8-16.529 12.465-20.48 8.034-4.317 17.794-3.859 25.388 1.192l57.6 38.347c6.536 4.244 10.481 11.508 10.481 19.302 0 7.793-3.944 15.057-10.481 19.302l-57.6 38.338c-4.048 2.704-8.806 4.148-13.674 4.148z"/><path id="Shape_116_" d="m485.517 317.793h-46.663c-3.941-.003-7.403-2.618-8.483-6.409l-11.476-40.157c-1.084-3.79-4.55-6.402-8.492-6.4h-79.289c-3.945-.001-7.411 2.615-8.492 6.409l-11.476 40.148c-1.08 3.791-4.542 6.406-8.483 6.409h-46.663c-14.626 0-26.483 11.857-26.483 26.483v16.19.23s0 .141 0 .221v124.601c0 14.625 11.857 26.482 26.483 26.482h229.517c14.626 0 26.483-11.857 26.483-26.483v-141.241c0-14.626-11.857-26.483-26.483-26.483zm-132.414-35.31h35.31c4.875 0 8.828 3.952 8.828 8.828s-3.952 8.828-8.828 8.828h-35.31c-4.875 0-8.828-3.952-8.828-8.828s3.953-8.828 8.828-8.828zm17.656 211.862c-48.753 0-88.276-39.522-88.276-88.276s39.522-88.276 88.276-88.276 88.276 39.522 88.276 88.276c-.054 48.731-39.545 88.222-88.276 88.276zm123.586-141.242c0 4.875-3.952 8.828-8.828 8.828s-8.828-3.952-8.828-8.828v-8.828c0-4.875 3.952-8.828 8.828-8.828s8.828 3.952 8.828 8.828z"/><path id="Path_246_" clip-rule="evenodd" d="m279.879 233.746-57.609-38.356c-1.127-.768-2.458-1.18-3.822-1.183-1.204.015-2.388.317-3.452.883-1.892.913-3.105 2.817-3.134 4.917v76.712c.029 2.1 1.242 4.004 3.134 4.917 2.297 1.248 5.095 1.126 7.274-.318l57.609-38.356c1.614-.971 2.601-2.716 2.601-4.599s-.987-3.628-2.601-4.599z" fill-rule="evenodd"/></g></g></g></svg>