<?xml version="1.0" ?><svg data-name="Layer 1" id="Layer_1" viewBox="0 0 64 64" xmlns="http://www.w3.org/2000/svg"><defs><style>.cls-1{fill:#badeeb;}.cls-2{fill:#ffe042;}.cls-3{fill:#38afcf;}.cls-4{fill:#688d96;}</style></defs><title/><rect class="cls-1" height="54" rx="4" ry="4" width="42" x="11" y="7"/><path class="cls-2" d="M11,53H53a0,0,0,0,1,0,0v4a4,4,0,0,1-4,4H15a4,4,0,0,1-4-4V53A0,0,0,0,1,11,53Z"/><path class="cls-3" d="M42,32H22a1,1,0,0,1,0-2H42a1,1,0,0,1,0,2Z"/><rect class="cls-4" height="4" rx="2" ry="2" transform="translate(29.5 -15.5) rotate(90)" width="8" x="18.5" y="5"/><rect class="cls-4" height="4" rx="2" ry="2" transform="translate(48.5 -34.5) rotate(90)" width="8" x="37.5" y="5"/></svg>