<?xml version="1.0" ?><svg data-name="Layer 1" id="Layer_1" viewBox="0 0 64 64" xmlns="http://www.w3.org/2000/svg"><defs><style>.cls-1{fill:#badeeb;}.cls-2{fill:#ffe042;}.cls-3{fill:#688d96;}</style></defs><title/><rect class="cls-1" height="54" rx="4" ry="4" width="42" x="11" y="7"/><path class="cls-2" d="M11,53H53a0,0,0,0,1,0,0v4a4,4,0,0,1-4,4H15a4,4,0,0,1-4-4V53A0,0,0,0,1,11,53Z"/><rect class="cls-3" height="4" rx="2" ry="2" transform="translate(29.5 -15.5) rotate(90)" width="8" x="18.5" y="5"/><rect class="cls-3" height="4" rx="2" ry="2" transform="translate(48.5 -34.5) rotate(90)" width="8" x="37.5" y="5"/><path d="M49,6H44.5V5a3,3,0,0,0-6,0V6h-13V5a3,3,0,0,0-6,0V6H15a5,5,0,0,0-5,5V57a5,5,0,0,0,5,5H49a5,5,0,0,0,5-5V11A5,5,0,0,0,49,6ZM40.5,5a1,1,0,0,1,2,0V9a1,1,0,0,1-2,0Zm-19,0a1,1,0,0,1,2,0V9a1,1,0,0,1-2,0ZM15,8h4.5V9a3,3,0,0,0,6,0V8h13V9a3,3,0,0,0,6,0V8H49a3,3,0,0,1,3,3V52H12V11A3,3,0,0,1,15,8ZM52,57a3,3,0,0,1-3,3H15a3,3,0,0,1-3-3V54H52Z"/><path d="M22,32H42a1,1,0,0,0,0-2H22a1,1,0,0,0,0,2Z"/></svg>