<svg id="Capa_1" enable-background="new 0 0 497 497" height="512" viewBox="0 0 497 497" width="512" xmlns="http://www.w3.org/2000/svg"><path d="m484.466 208.911-21.748-3.625c-5.667-28.246-16.783-54.519-32.201-77.685l12.829-17.961c4.262-5.967 3.585-14.14-1.599-19.325l-35.063-35.063c-5.185-5.185-13.358-5.861-19.325-1.599l-17.961 12.829c-23.166-15.418-49.439-26.534-77.685-32.201l-3.625-21.748c-1.205-7.232-7.462-12.533-14.795-12.533h-49.586c-7.333 0-13.591 5.301-14.796 12.534l-3.625 21.748c-28.246 5.667-54.519 16.783-77.685 32.201l-17.961-12.829c-5.967-4.262-14.14-3.586-19.325 1.599l-35.062 35.062c-5.185 5.185-5.861 13.358-1.599 19.325l12.829 17.961c-15.418 23.166-26.534 49.439-32.201 77.685l-21.748 3.625c-7.233 1.206-12.534 7.463-12.534 14.796v49.586c0 7.333 5.301 13.59 12.534 14.796l21.748 3.625c5.667 28.246 16.783 54.519 32.201 77.685l-12.83 17.961c-4.262 5.967-3.585 14.14 1.599 19.325l35.063 35.063c5.185 5.185 13.358 5.861 19.325 1.599l17.961-12.829c23.166 15.418 49.439 26.534 77.685 32.201l3.625 21.748c1.206 7.233 7.463 12.534 14.796 12.534h49.586c7.333 0 13.59-5.301 14.796-12.534l3.625-21.748c28.246-5.667 54.519-16.783 77.685-32.201l17.961 12.829c5.967 4.262 14.14 3.586 19.325-1.599l35.063-35.063c5.185-5.185 5.861-13.358 1.599-19.325l-12.829-17.961c15.418-23.166 26.534-49.439 32.201-77.685l21.748-3.625c7.233-1.205 12.534-7.463 12.534-14.796v-49.586c-.001-7.333-5.302-13.591-12.535-14.796z" fill="#93b7c0"/><circle cx="248.5" cy="248.5" fill="#725fee" r="188.5"/><path d="m248.5 90v317c87.537 0 158.5-70.963 158.5-158.5s-70.963-158.5-158.5-158.5z" fill="#c4f3ff"/><path d="m369.5 248.5c0-87.537-57.531-158.5-128.5-158.5-87.537 0-158.5 70.963-158.5 158.5s70.963 158.5 158.5 158.5c70.969 0 128.5-70.963 128.5-158.5z" fill="#fff"/><path d="m243.197 243.196-90.863 90.863c-2.929 2.93-2.929 7.678 0 10.607 1.464 1.464 3.384 2.196 5.303 2.196s3.839-.732 5.303-2.196l90.864-90.863z" fill="#93b7c0"/><path d="m362 233.5h-30v30h30c8.28 0 15-6.72 15-15s-6.72-15-15-15z" fill="#61ce5a"/><path d="m332 233.5h-75v30h75c8.28 0 15-6.72 15-15s-6.72-15-15-15z" fill="#94e368"/><path d="m248.5 120c-8.284 0-15 6.716-15 15v111.734h30v-111.734c0-8.284-6.716-15-15-15z" fill="#94e368"/><circle cx="248.5" cy="248.5" fill="#725fee" r="22.5"/></svg>