<svg id="Capa_1" enable-background="new 0 0 512 512" height="512" viewBox="0 0 512 512" width="512" xmlns="http://www.w3.org/2000/svg"><path d="m493.199 209.013-16.708-2.784c-5.661-25.218-15.531-49.028-29.4-70.926l9.859-13.803c6.419-8.988 5.41-21.18-2.399-28.988l-35.063-35.062c-7.81-7.812-20.002-8.821-28.988-2.399l-13.803 9.858c-21.898-13.869-45.709-23.74-70.926-29.401l-2.784-16.706c-1.815-10.895-11.149-18.802-22.194-18.802h-49.586c-11.045 0-20.379 7.907-22.194 18.801l-2.785 16.707c-25.216 5.661-49.027 15.532-70.925 29.401l-13.803-9.859c-8.988-6.419-21.179-5.41-28.987 2.399l-35.064 35.063c-7.81 7.81-8.819 20.001-2.399 28.988l9.859 13.803c-13.87 21.897-23.74 45.709-29.401 70.926l-16.707 2.784c-10.894 1.815-18.801 11.149-18.801 22.194v49.586c0 11.045 7.907 20.379 18.801 22.194l16.707 2.784c5.661 25.217 15.532 49.028 29.401 70.926l-9.859 13.803c-6.419 8.987-5.411 21.179 2.399 28.988l35.063 35.062c7.81 7.811 20 8.819 28.988 2.399l13.803-9.858c21.896 13.868 45.708 23.739 70.925 29.401l2.785 16.707c1.816 10.894 11.15 18.801 22.194 18.801h49.586c11.045 0 20.379-7.907 22.194-18.801l2.784-16.708c25.218-5.661 49.028-15.531 70.926-29.4l13.803 9.859c8.989 6.418 21.179 5.41 28.988-2.399l35.062-35.063c7.811-7.809 8.819-20 2.399-28.988l-9.858-13.803c13.869-21.897 23.739-45.708 29.4-70.926l16.707-2.784c10.895-1.815 18.802-11.149 18.802-22.194v-49.586c0-11.045-7.907-20.379-18.801-22.194zm3.801 71.78c0 3.682-2.636 6.793-6.268 7.397l-21.748 3.625c-3.071.513-5.508 2.87-6.12 5.923-5.392 26.873-15.852 52.108-31.09 75.005-1.726 2.592-1.67 5.98.141 8.515l12.828 17.961c2.141 2.996 1.804 7.06-.8 9.662l-35.063 35.063c-2.603 2.603-6.665 2.938-9.662.8l-17.961-12.829c-2.536-1.812-5.924-1.865-8.515-.141-22.896 15.238-48.132 25.698-75.005 31.09-3.053.612-5.41 3.049-5.923 6.12l-3.625 21.749c-.604 3.631-3.716 6.267-7.397 6.267h-49.586c-3.682 0-6.792-2.636-7.398-6.268l-3.625-21.747c-.512-3.071-2.869-5.508-5.922-6.12-26.874-5.393-52.109-15.854-75.005-31.091-1.26-.839-2.708-1.257-4.155-1.257-1.529 0-3.057.467-4.359 1.397l-17.96 12.828c-2.997 2.141-7.06 1.803-9.663-.8l-35.063-35.063c-2.603-2.603-2.939-6.666-.799-9.662l12.829-17.961c1.81-2.534 1.866-5.923.141-8.515-15.239-22.897-25.7-48.133-31.091-75.005-.613-3.053-3.048-5.41-6.121-5.923l-21.748-3.625c-3.631-.604-6.267-3.716-6.267-7.397v-49.586c0-3.682 2.636-6.793 6.267-7.397l21.748-3.625c3.072-.513 5.508-2.87 6.121-5.923 5.391-26.872 15.852-52.107 31.091-75.005 1.725-2.592 1.669-5.98-.141-8.515l-12.829-17.961c-2.14-2.996-1.804-7.06.799-9.662l35.063-35.063c2.603-2.603 6.667-2.938 9.662-.8l17.961 12.829c2.534 1.811 5.923 1.866 8.515.141 22.898-15.239 48.133-25.699 75.004-31.091 3.054-.612 5.411-3.049 5.923-6.12l3.625-21.748c.605-3.631 3.716-6.267 7.398-6.267h49.586c3.682 0 6.793 2.636 7.397 6.268l3.625 21.747c.513 3.071 2.87 5.508 5.923 6.12 26.872 5.392 52.107 15.852 75.005 31.091 2.591 1.726 5.98 1.671 8.515-.141l17.961-12.829c2.995-2.14 7.058-1.805 9.662.801l35.063 35.063c2.603 2.603 2.939 6.666.8 9.662l-12.829 17.961c-1.811 2.534-1.866 5.923-.141 8.515 15.238 22.896 25.698 48.132 31.09 75.005.612 3.053 3.049 5.41 6.12 5.923l21.748 3.625c3.632.604 6.268 3.716 6.268 7.397z"/><path d="m256 422c91.532 0 166-74.468 166-166s-74.468-166-166-166c-91.533 0-166 74.468-166 166s74.467 166 166 166zm0-317c83.262 0 151 67.738 151 151s-67.738 151-151 151-151-67.738-151-151 67.738-151 151-151z"/><path d="m256 60c-46.574 0-91.72 16.63-127.122 46.826-3.151 2.688-3.527 7.422-.839 10.573 2.688 3.152 7.422 3.527 10.573.839 32.69-27.883 74.379-43.238 117.388-43.238 99.804 0 181 81.196 181 181s-81.196 181-181 181-181-81.196-181-181c0-43.009 15.356-84.698 43.238-117.388 2.688-3.151 2.313-7.886-.839-10.573-3.152-2.689-7.886-2.313-10.573.839-30.196 35.401-46.826 80.548-46.826 127.122 0 108.075 87.925 196 196 196s196-87.925 196-196-87.925-196-196-196z"/><path d="m165.137 354.363c1.919 0 3.839-.732 5.303-2.196l70.333-70.333c4.467 2.643 9.671 4.166 15.227 4.166 7.588 0 14.523-2.837 19.811-7.5h93.689c12.406 0 22.5-10.094 22.5-22.5s-10.094-22.5-22.5-22.5h-91v-91c0-12.406-10.094-22.5-22.5-22.5-12.407 0-22.5 10.094-22.5 22.5v93.688c-4.662 5.289-7.5 12.223-7.5 19.812 0 5.556 1.523 10.76 4.166 15.227l-70.333 70.333c-2.929 2.93-2.929 7.678 0 10.607 1.465 1.464 3.384 2.196 5.304 2.196zm90.863-83.363c-8.271 0-15-6.729-15-15s6.729-15 15-15 15 6.729 15 15-6.729 15-15 15zm121-15c0 4.136-3.364 7.5-7.5 7.5h-84.449c.619-2.398.949-4.911.949-7.5s-.33-5.102-.949-7.5h84.449c4.136 0 7.5 3.364 7.5 7.5zm-121-121c4.136 0 7.5 3.364 7.5 7.5v84.449c-2.398-.619-4.911-.949-7.5-.949s-5.102.33-7.5.949v-84.449c0-4.136 3.364-7.5 7.5-7.5z"/></svg>