<?xml version="1.0" encoding="utf-8"?>
<!-- Generator: Adobe Illustrator 22.0.1, SVG Export Plug-In . SVG Version: 6.00 Build 0)  -->
<svg version="1.1" id="图层_1" xmlns="http://www.w3.org/2000/svg" xmlns:xlink="http://www.w3.org/1999/xlink" x="0px" y="0px"
	 viewBox="0 0 200 200" style="enable-background:new 0 0 200 200;" xml:space="preserve">
<style type="text/css">
	.st0{fill:#FFFFFF;stroke:#000000;stroke-miterlimit:10;}
</style>
<path class="st0" d="M172.1,100c0-10.2,6.4-18.9,15.4-22.4c-2.1-8.4-5.5-16.4-9.8-23.7c-8.8,3.9-19.5,2.3-26.7-4.9
	c-7.2-7.2-8.8-17.9-4.9-26.7c-7.3-4.3-15.3-7.7-23.7-9.8c-3.5,9-12.1,15.4-22.4,15.4c-10.2,0-18.9-6.4-22.4-15.4
	c-8.4,2.1-16.4,5.5-23.7,9.8c3.9,8.8,2.3,19.5-4.9,26.7s-17.9,8.8-26.7,4.9c-4.4,7.3-7.7,15.3-9.8,23.7c9,3.5,15.4,12.1,15.4,22.4
	c0,10.2-6.4,18.9-15.4,22.4c2.1,8.4,5.5,16.4,9.8,23.7c8.8-3.9,19.5-2.3,26.7,4.9c7.2,7.2,8.8,17.9,4.9,26.7
	c7.3,4.3,15.3,7.7,23.7,9.8c3.5-9,12.1-15.4,22.4-15.4c10.2,0,18.9,6.4,22.4,15.4c8.4-2.1,16.4-5.5,23.7-9.8
	c-3.9-8.8-2.3-19.5,4.9-26.7s17.9-8.8,26.7-4.9c4.4-7.3,7.7-15.3,9.8-23.7C178.5,118.9,172.1,110.2,172.1,100z M100,124
	c-13.3,0-24-10.8-24-24s10.8-24,24-24s24,10.8,24,24S113.3,124,100,124z"/>
</svg>
